<?xml version="1.0" encoding="UTF-8"?>
<svg id="CP_x5F_BildWortmarke_x5F_ohneClaim" xmlns="http://www.w3.org/2000/svg" version="1.1" viewBox="0 0 841.9 250">
  <!-- Generator: Adobe Illustrator 29.7.1, SVG Export Plug-In . SVG Version: 2.1.1 Build 8)  -->
  <defs>
    <style>
      .st0 {
        fill: #55812f;
      }

      .st1 {
        fill: #fff;
      }

      .st2 {
        fill: #697179;
      }
    </style>
  </defs>
  <path class="st0" d="M804.5,154.4v-4c0-1.1-.8-1.6-2.4-1.6h-6.4c-4.6,0-6.2-.9-6.2-7.2v-39.9h12.4c1.3,0,2.3-1,2.3-2.3v-3.9c0-1.3-1-2.3-2.3-2.3h-12.4v-12.5c0-1.1-.8-1.9-1.7-1.9h-.3l-6,.9c-1.3.2-2.1,1.1-2.1,2.3v11.2h-11.1c-1.3,0-2.2.8-2.2,2.1v3.1c0,1.3.9,1.9,2.2,2.1l11.1,1.3v39.9c0,12.6,5,15.3,15.6,15.3s5.2-.2,7.4-.6c1.5-.2,2.1-.9,2.1-1.9M757.8,153.8v-37.7c0-15.2-6.2-23.8-19.9-23.8s-11.9,1.7-18.2,5.3v-2.2c0-1.3-.9-2.3-2.2-2.3h-5.7c-1.3,0-2.2,1-2.2,2.3v58.4c0,1.3,1,2.3,2.2,2.3h5.6c1.3,0,2.3-1.1,2.3-2.3v-48.3c5.3-2.6,10.6-4.5,15.5-4.5,8.7,0,12.6,3.5,12.6,15.1v37.7c0,1.3,1,2.3,2.3,2.3h5.5c1.3,0,2.3-1,2.3-2.3M685.7,120.1h-30.3v-1c0-12.4,5.5-18,15.3-18s15,5,15,18v1ZM695.8,125.3v-6.2c0-16.3-8.5-26.8-25.2-26.8s-25.4,10.4-25.4,26.8v10.3c0,21.3,12.8,27.5,26,27.5s14-.7,20.5-1.9c1.8-.3,2.3-1.1,2.3-2.6v-3.9c0-1.1-.9-1.6-1.8-1.6h-.6c-5.3.8-13.7,1.3-20.4,1.3-10.5,0-15.9-5-15.9-18.7v-1.6h38.3c1.4,0,2.2-1,2.2-2.5M631.7,153.8v-40.5c0-15.9-8.2-21.1-18.5-21.1s-12.7,1.7-19,4.7c-2.9-3.3-6.5-4.7-11.4-4.7s-12.1,2.5-16.7,5.4v-2.2c0-1.3-.9-2.3-2.2-2.3h-5.7c-1.3,0-2.2,1-2.2,2.3v58.4c0,1.3.8,2.3,1.9,2.3h6.1c1.3,0,2.1-1.1,2.1-2.3v-48.3c4.8-2.4,9.8-4.5,14-4.5,6,0,8.8,2.1,8.8,12v40.7c0,1.3.8,2.3,1.9,2.3h6.1c1.3,0,2.1-1.1,2.1-2.3v-40.7c0-3.4-.3-6.4-1-8.9,4.5-1.7,9.3-3.1,13.4-3.1,6,0,10.4,2.6,10.4,12.2v40.5c0,1.3,1,2.3,2.3,2.3h5.5c1.3,0,2.3-1,2.3-2.3M532.1,120.1h-30.3v-1c0-12.4,5.5-18,15.3-18s15,5,15,18v1ZM542.2,125.3v-6.2c0-16.3-8.5-26.8-25.2-26.8s-25.4,10.4-25.4,26.8v10.3c0,21.3,12.8,27.5,26,27.5s14-.7,20.5-1.9c1.8-.3,2.3-1.1,2.3-2.6v-3.9c0-1.1-.9-1.6-1.8-1.6h-.6c-5.3.8-13.7,1.3-20.4,1.3-10.5,0-15.9-5-15.9-18.7v-1.6h38.3c1.4,0,2.2-1,2.2-2.5M477,153.8v-81.6c0-1.3-.9-2.2-2.1-2.2h-6c-1.3,0-2.1,1-2.1,2.2v81.6c0,1.3.9,2.3,2.1,2.3h6c1.3,0,2.1-1.1,2.1-2.3M442.2,128.8c0,12.2-3.7,19.6-14.9,19.6s-9.6-.5-13.4-1.1v-45.3c3.2-.6,8.6-1.1,13.4-1.1,11.3,0,14.9,7.8,14.9,19.8v8.2ZM452.3,128.8v-8.2c0-17.2-7.9-28.3-25-28.3s-15,1.1-21.1,2.6c-2.1.5-2.4,1.1-2.4,2.6v78.7c0,1.3.9,2.2,2.1,2.2h5.8c1.3,0,2.2-1,2.2-2.2v-20.7c4.5.8,9.8,1.3,13.4,1.3,16.7,0,25-10.1,25-28"/>
  <path class="st2" d="M388.3,153.8v-37.7c0-15.2-6.2-23.8-19.9-23.8s-11.9,1.7-18.2,5.3v-2.2c0-1.3-.9-2.3-2.2-2.3h-5.7c-1.3,0-2.2,1-2.2,2.3v58.4c0,1.3,1,2.3,2.2,2.3h5.6c1.3,0,2.3-1.1,2.3-2.3v-48.3c5.3-2.6,10.6-4.5,15.5-4.5,8.7,0,12.6,3.5,12.6,15.1v37.7c0,1.3,1,2.3,2.3,2.3h5.5c1.3,0,2.3-1,2.3-2.3M316.5,128.9c0,11.8-4.8,19.1-15.5,19.1s-15.3-7.4-15.3-19.1v-8.7c0-11.8,4.7-19.1,15.3-19.1s15.5,7.4,15.5,19.1v8.7ZM326.6,128.9v-8.7c0-16.8-8.7-27.9-25.5-27.9s-25.4,11.1-25.4,27.9v8.7c0,16.8,8.6,27.9,25.4,27.9s25.5-11.1,25.5-27.9M269,153.1v-4.1c0-1.1-.9-1.7-1.9-1.7h-.5c-5,.6-8.6.8-14.2.8-9.3,0-14.3-6.2-14.3-19v-8.9c0-12.9,5.2-19,14.3-19s9.2.2,14.2.8h.5c1,0,1.9-.6,1.9-1.7v-4.1c0-1.6-.5-2.2-2.3-2.5-3.8-.7-9-1.3-14.3-1.3-15.7,0-24.4,11-24.4,27.8v8.9c0,16.8,8.8,27.8,24.4,27.8s10.5-.6,14.3-1.3c1.8-.3,2.3-1,2.3-2.5"/>
  <g id="Logo_x5F_Bildmarke">
    <path id="BG" class="st0" d="M37.4,125c0,45.5,36.8,82.3,82.3,82.3s82.3-36.8,82.3-82.3-36.8-82.3-82.3-82.3S37.4,79.5,37.4,125"/>
    <g id="CP_x5F_Double_x5F_Line">
      <path class="st1" d="M124.4,155.7c6.6-6.5,10.3-11.2,17.3-9.6.2,0,.5.1.7.2,5.8,1.8,11.6,2.3,17.5.6,9.6-2.8,17.3-12.6,17.8-22.5.6-11.9-5.4-22-15.4-26.1-10.7-4.4-21.4-2.1-29.5,6-6.7,6.8-13.5,13.5-20.3,20.3-3.8,3.7-7.7,7.5-11.5,11.2-8.6,8.4-22.4,7.2-29.3-2.6-4.8-6.8-5-14.3-.6-21.3,4.2-6.7,9.5-10.2,18.3-9.2,1.8.2,3.4.5,5.2,1,2,.6,8.4,1.3,9.4-2.5.4-1.3-8.3-3.6-8.3-3.6-5.8-1.5-10.7-1.9-16.3-.2-9.6,2.8-17.3,12.6-17.8,22.5-.6,11.9,5.4,22,15.4,26.1,10.7,4.4,21.1,1.9,29.5-6,3.8-3.6,7.5-7.3,11.3-11,.3-.3.6-.5.9-.8,3.2-3.2,6.4-6.5,9.6-9.7.1-.1.2-.2.4-.4.7-.7,1.4-1.4,2.1-2.1.2-.2.5-.4.7-.7,2.3-2.3,4.6-4.6,6.9-6.8,8.6-8.4,22.4-7.2,29.3,2.6,4.8,6.8,5,14.3.6,21.3-4.2,6.7-10.2,10-18,9.4-.7,0-1.8-.1-6.5-1.4-8.3-2.8-12.7.6-15.9,3,0,0-6.1,3.2-27.9,26.6-2.4,2.6-3.3,5.4-2.9,8.8.1,1,.5,2.1,1.2,2.4.6.3,1.4-.6,2-1.2,8.1-8.1,16.1-16.2,24.3-24.2"/>
      <path class="st1" d="M188.8,114c-5-24.4-32.8-37-54.8-25.2,0,0-6.8,2.9-28.6,26.3-2.4,2.6-3.3,5.4-2.9,8.8.1,1,.5,2,1,2.2.7.4,1.6-.5,2.2-1.1,8.1-8.1,16.1-16.2,24.3-24.2,13.2-13,33.3-12.4,45.2,1.7,7.9,9.4,9.6,20.3,4.6,31.6-5,11.4-13.9,17.5-26.4,18.3-4,.2-7.5-.3-11.6-1.6-2.9-.7-5-1.6-14.5,8.3-7.8,8.1-16,16-24,24-.6.6-1.4,1.1-1.1,1.9.2.5,1.1.8,1.9.9,3.6.5,6.5-.5,9-3.1,6.5-6.6,13-13.2,19.6-19.6,5-4.9,6.5-5.2,10.9-4.3.1,0,2.4.5,2.4.5,24.9,4.1,48.4-17.7,42.8-45.4"/>
      <path class="st1" d="M134,129.1c2.4-2.6,3.3-5.4,2.9-8.8-.1-1-.3-2-1.2-2.5-.6-.3-1.5.7-2,1.3-8.1,8.1-16.1,16.2-24.3,24.2-13.2,13-33.3,12.4-45.2-1.7-7.9-9.4-9.6-20.3-4.6-31.6,5-11.4,13.9-17.5,26.4-18.3,4.4-.3,9.3.5,12.4,1.5,4.6,1.5,6.3,3.5,7.7,3.2.9-.2,2.3-8.4-10.7-11.3-25.7-5.7-50.6,16.5-44.8,45,5,24.4,32.8,37,54.8,25.2,0,0,6.8-2.9,28.6-26.3"/>
    </g>
  </g>
</svg>