<svg xmlns="http://www.w3.org/2000/svg" id="Ebene_2" viewBox="0 0 586.96 159.39"><g id="Ebene_1-2"><g><g><path d="M16.03,142.97h8.23c-.18,2.73-1.27,4.88-3.27,6.46-2,1.58-4.66,2.36-7.97,2.36-3.67,0-6.57-1-8.7-2.99s-3.2-4.7-3.2-8.13,1.05-6.13,3.16-8.1c2.11-1.97,5-2.96,8.66-2.96,3.33,0,6,.78,8.04,2.33,2.03,1.55,3.1,3.65,3.2,6.27H15.96c-.09-.98-.38-1.7-.88-2.17s-1.22-.71-2.17-.71c-1.19,0-2.07,.43-2.63,1.29-.56,.86-.84,2.21-.84,4.05s.27,3.23,.81,4.09c.54,.86,1.4,1.29,2.58,1.29,.95,0,1.7-.26,2.24-.78s.86-1.29,.96-2.3Z" style="fill:#1d1d1b;"></path><path d="M26.55,140.67c0-3.43,1.04-6.13,3.12-8.1,2.08-1.97,4.94-2.96,8.59-2.96s6.5,.99,8.58,2.96c2.08,1.97,3.11,4.67,3.11,8.1s-1.04,6.17-3.12,8.15-4.94,2.97-8.57,2.97-6.49-.99-8.58-2.97-3.13-4.7-3.13-8.15Zm8.32,0c0,1.92,.26,3.29,.79,4.13s1.39,1.26,2.6,1.26,2.08-.42,2.62-1.27c.54-.84,.81-2.22,.81-4.12s-.27-3.25-.81-4.08c-.54-.83-1.41-1.25-2.62-1.25s-2.07,.41-2.6,1.24-.79,2.19-.79,4.09Z" style="fill:#1d1d1b;"></path><path d="M53.32,151.05v-20.7h7.48v3.03c.91-1.22,1.94-2.12,3.08-2.7s2.46-.88,3.94-.88c1.36,0,2.53,.29,3.51,.86,.98,.57,1.86,1.48,2.64,2.72,1-1.24,2.1-2.16,3.29-2.74s2.54-.88,4.04-.88c2.44,0,4.33,.63,5.67,1.89,1.35,1.26,2.02,3.02,2.02,5.29v14.11h-8.11v-11.08c0-1.29-.22-2.23-.66-2.82-.44-.58-1.15-.88-2.12-.88s-1.74,.3-2.21,.91-.7,1.56-.7,2.86v11.01h-8.07v-10.8c0-1.42-.23-2.44-.68-3.06-.45-.62-1.19-.92-2.22-.92-.91,0-1.61,.31-2.08,.93-.48,.62-.71,1.53-.71,2.72v11.12h-8.11Z" style="fill:#1d1d1b;"></path><path d="M93.25,151.05v-20.7h7.48v3.03c.91-1.22,1.94-2.12,3.08-2.7s2.46-.88,3.94-.88c1.36,0,2.53,.29,3.51,.86,.98,.57,1.86,1.48,2.64,2.72,1-1.24,2.1-2.16,3.29-2.74s2.54-.88,4.04-.88c2.44,0,4.33,.63,5.67,1.89,1.35,1.26,2.02,3.02,2.02,5.29v14.11h-8.11v-11.08c0-1.29-.22-2.23-.66-2.82-.44-.58-1.15-.88-2.12-.88s-1.74,.3-2.21,.91-.7,1.56-.7,2.86v11.01h-8.07v-10.8c0-1.42-.23-2.44-.68-3.06-.45-.62-1.19-.92-2.22-.92-.91,0-1.61,.31-2.08,.93-.48,.62-.71,1.53-.71,2.72v11.12h-8.11Z" style="fill:#1d1d1b;"></path><path d="M132.08,140.67c0-3.43,1.04-6.13,3.12-8.1,2.08-1.97,4.94-2.96,8.59-2.96s6.5,.99,8.58,2.96c2.08,1.97,3.11,4.67,3.11,8.1s-1.04,6.17-3.12,8.15-4.94,2.97-8.57,2.97-6.49-.99-8.58-2.97-3.13-4.7-3.13-8.15Zm8.32,0c0,1.92,.26,3.29,.79,4.13s1.39,1.26,2.6,1.26,2.08-.42,2.62-1.27c.54-.84,.81-2.22,.81-4.12s-.27-3.25-.81-4.08c-.54-.83-1.41-1.25-2.62-1.25s-2.07,.41-2.6,1.24-.79,2.19-.79,4.09Z" style="fill:#1d1d1b;"></path><path d="M158.86,151.05v-20.7h7.48v3.03c.96-1.21,2.04-2.1,3.23-2.69,1.19-.59,2.53-.89,4.03-.89,1.26,0,2.38,.21,3.37,.63,.99,.42,1.83,1.04,2.51,1.87,.62,.75,1.06,1.66,1.32,2.73,.26,1.07,.39,2.83,.39,5.26v10.76h-8.23v-10.72c0-1.57-.21-2.66-.63-3.25-.42-.59-1.14-.89-2.17-.89s-1.82,.34-2.32,1.03c-.51,.69-.76,1.73-.76,3.14v10.68h-8.23Z" style="fill:#1d1d1b;"></path><path d="M220.29,151.05h-7.29v-2.53c-.89,1.11-1.89,1.93-3.02,2.47-1.12,.54-2.38,.81-3.78,.81-2.65,0-4.8-1.01-6.44-3.02-1.64-2.01-2.46-4.68-2.46-7.99s.82-5.95,2.47-8c1.64-2.04,3.76-3.07,6.35-3.07,1.24,0,2.37,.24,3.38,.71,1.01,.47,1.93,1.18,2.75,2.13v-9.56h8.04v28.05Zm-11.35-5.35c1.05,0,1.88-.42,2.49-1.27,.6-.84,.9-2.02,.9-3.51,0-1.62-.28-2.83-.84-3.62s-1.41-1.18-2.55-1.18-1.99,.39-2.53,1.17c-.55,.78-.82,1.99-.82,3.63,0,1.51,.29,2.69,.89,3.52,.59,.84,1.41,1.26,2.47,1.26Z" style="fill:#1d1d1b;"></path><path d="M239.46,151.05l-.51-1.98c-1.05,.93-2.19,1.61-3.41,2.06s-2.59,.67-4.11,.67c-2.34,0-4.14-.57-5.42-1.72-1.28-1.15-1.91-2.77-1.91-4.87s.63-3.55,1.88-4.53c1.26-.98,3.63-1.69,7.12-2.13,.44-.06,1.04-.13,1.79-.21,2.6-.28,3.9-.95,3.9-2.02,0-.6-.24-1.03-.71-1.3-.48-.27-1.23-.41-2.26-.41-.85,0-1.5,.17-1.96,.5-.46,.34-.72,.85-.8,1.55h-8.04c.04-2.32,.99-4.08,2.86-5.27,1.87-1.19,4.61-1.78,8.23-1.78,1.7,0,3.27,.16,4.71,.48,1.44,.32,2.56,.74,3.36,1.28,.98,.66,1.66,1.41,2.06,2.24,.39,.83,.59,2.02,.59,3.57v11.54c0,.38,.08,.72,.23,1.02,.15,.3,.37,.54,.67,.73v.59h-8.27Zm-.76-9.24c-.79,.3-1.83,.63-3.14,.97-2.06,.55-3.08,1.28-3.08,2.19,0,.58,.2,1.04,.61,1.37s.98,.49,1.73,.49c1.37,0,2.37-.32,3-.95,.63-.63,.94-1.64,.94-3.03,0-.29,0-.51,0-.66,0-.15-.02-.28-.05-.39Z" style="fill:#1d1d1b;"></path><path d="M261.1,143.38c0,.7,.2,1.19,.61,1.48,.41,.29,1.13,.43,2.17,.43,.3,0,.54,0,.7,0,.16,0,.31-.02,.47-.03v5.96c-1.02,.06-1.94,.11-2.77,.14-.83,.03-1.61,.05-2.33,.05-2.62,0-4.44-.44-5.47-1.31-1.03-.88-1.55-2.41-1.55-4.61v-10.38h-2.91v-4.74h2.91v-6.4h8.19v6.4h3.87v4.74h-3.87v8.28Z" style="fill:#1d1d1b;"></path><path d="M283.07,151.05l-.51-1.98c-1.05,.93-2.19,1.61-3.41,2.06s-2.59,.67-4.11,.67c-2.34,0-4.14-.57-5.42-1.72-1.28-1.15-1.91-2.77-1.91-4.87s.63-3.55,1.88-4.53c1.26-.98,3.63-1.69,7.12-2.13,.44-.06,1.04-.13,1.79-.21,2.6-.28,3.9-.95,3.9-2.02,0-.6-.24-1.03-.71-1.3-.48-.27-1.23-.41-2.26-.41-.85,0-1.5,.17-1.96,.5-.46,.34-.72,.85-.8,1.55h-8.04c.04-2.32,.99-4.08,2.86-5.27,1.87-1.19,4.61-1.78,8.23-1.78,1.7,0,3.27,.16,4.71,.48,1.44,.32,2.56,.74,3.36,1.28,.98,.66,1.66,1.41,2.06,2.24,.39,.83,.59,2.02,.59,3.57v11.54c0,.38,.08,.72,.23,1.02,.15,.3,.37,.54,.67,.73v.59h-8.27Zm-.76-9.24c-.79,.3-1.83,.63-3.14,.97-2.06,.55-3.08,1.28-3.08,2.19,0,.58,.2,1.04,.61,1.37s.98,.49,1.73,.49c1.37,0,2.37-.32,3-.95,.63-.63,.94-1.64,.94-3.03,0-.29,0-.51,0-.66,0-.15-.02-.28-.05-.39Z" style="fill:#1d1d1b;"></path><path d="M308.04,151.05v-20.7h7.48v3.03c.91-1.22,1.94-2.12,3.08-2.7s2.46-.88,3.94-.88c1.36,0,2.53,.29,3.51,.86,.98,.57,1.86,1.48,2.64,2.72,1-1.24,2.1-2.16,3.29-2.74s2.54-.88,4.04-.88c2.44,0,4.33,.63,5.68,1.89,1.34,1.26,2.02,3.02,2.02,5.29v14.11h-8.11v-11.08c0-1.29-.22-2.23-.66-2.82-.44-.58-1.15-.88-2.12-.88s-1.74,.3-2.21,.91-.7,1.56-.7,2.86v11.01h-8.07v-10.8c0-1.42-.23-2.44-.68-3.06-.45-.62-1.19-.92-2.22-.92-.91,0-1.61,.31-2.08,.93-.48,.62-.71,1.53-.71,2.72v11.12h-8.11Z" style="fill:#1d1d1b;"></path><path d="M362.71,151.05l-.51-1.98c-1.05,.93-2.19,1.61-3.41,2.06s-2.59,.67-4.11,.67c-2.34,0-4.14-.57-5.42-1.72-1.28-1.15-1.91-2.77-1.91-4.87s.63-3.55,1.88-4.53c1.26-.98,3.63-1.69,7.12-2.13,.44-.06,1.04-.13,1.79-.21,2.6-.28,3.9-.95,3.9-2.02,0-.6-.24-1.03-.71-1.3-.48-.27-1.23-.41-2.26-.41-.85,0-1.5,.17-1.96,.5-.46,.34-.72,.85-.8,1.55h-8.04c.04-2.32,.99-4.08,2.86-5.27,1.87-1.19,4.61-1.78,8.23-1.78,1.7,0,3.27,.16,4.71,.48,1.44,.32,2.56,.74,3.36,1.28,.98,.66,1.66,1.41,2.06,2.24,.39,.83,.59,2.02,.59,3.57v11.54c0,.38,.08,.72,.23,1.02,.15,.3,.37,.54,.67,.73v.59h-8.27Zm-.76-9.24c-.79,.3-1.83,.63-3.14,.97-2.06,.55-3.08,1.28-3.08,2.19,0,.58,.2,1.04,.61,1.37s.98,.49,1.73,.49c1.37,0,2.37-.32,3-.95,.63-.63,.94-1.64,.94-3.03,0-.29,0-.51,0-.66,0-.15-.02-.28-.05-.39Z" style="fill:#1d1d1b;"></path><path d="M374.84,151.05v-20.7h7.48v3.03c.96-1.21,2.04-2.1,3.23-2.69,1.19-.59,2.53-.89,4.03-.89,1.26,0,2.38,.21,3.37,.63,.99,.42,1.83,1.04,2.51,1.87,.62,.75,1.06,1.66,1.32,2.73,.26,1.07,.39,2.83,.39,5.26v10.76h-8.23v-10.72c0-1.57-.21-2.66-.63-3.25-.42-.59-1.14-.89-2.17-.89s-1.82,.34-2.32,1.03c-.51,.69-.76,1.73-.76,3.14v10.68h-8.23Z" style="fill:#1d1d1b;"></path><path d="M416.22,151.05l-.51-1.98c-1.05,.93-2.19,1.61-3.41,2.06s-2.59,.67-4.11,.67c-2.34,0-4.14-.57-5.42-1.72-1.28-1.15-1.91-2.77-1.91-4.87s.63-3.55,1.88-4.53c1.26-.98,3.63-1.69,7.12-2.13,.44-.06,1.04-.13,1.79-.21,2.6-.28,3.9-.95,3.9-2.02,0-.6-.24-1.03-.71-1.3-.48-.27-1.23-.41-2.26-.41-.85,0-1.5,.17-1.96,.5-.46,.34-.72,.85-.8,1.55h-8.04c.04-2.32,.99-4.08,2.86-5.27,1.87-1.19,4.61-1.78,8.23-1.78,1.7,0,3.27,.16,4.71,.48,1.44,.32,2.56,.74,3.36,1.28,.98,.66,1.66,1.41,2.06,2.24,.39,.83,.59,2.02,.59,3.57v11.54c0,.38,.08,.72,.23,1.02,.15,.3,.37,.54,.67,.73v.59h-8.27Zm-.76-9.24c-.79,.3-1.83,.63-3.14,.97-2.06,.55-3.08,1.28-3.08,2.19,0,.58,.2,1.04,.61,1.37s.98,.49,1.73,.49c1.37,0,2.37-.32,3-.95,.63-.63,.94-1.64,.94-3.03,0-.29,0-.51,0-.66,0-.15-.02-.28-.05-.39Z" style="fill:#1d1d1b;"></path><path d="M428.73,153.28h8.15c.1,.49,.34,.85,.71,1.07,.37,.21,.94,.32,1.7,.32,1.21,0,2.02-.27,2.45-.8,.42-.53,.64-1.71,.64-3.52v-1.12c-.7,.67-1.53,1.18-2.49,1.51-.96,.34-2.05,.5-3.29,.5-2.79,0-5.03-.96-6.71-2.87-1.68-1.91-2.52-4.45-2.52-7.63,0-3.34,.8-6,2.41-7.98,1.61-1.98,3.75-2.97,6.43-2.97,1.5,0,2.8,.26,3.91,.79,1.11,.53,2.07,1.34,2.88,2.45v-2.68h7.29v19.1c0,3.61-.88,6.16-2.65,7.67s-4.74,2.27-8.93,2.27c-2.91,0-5.23-.53-6.97-1.6s-2.75-2.57-3.03-4.51Zm6.84-12.72c0,1.66,.27,2.9,.82,3.7,.55,.81,1.38,1.21,2.5,1.21,1.18,0,2.05-.39,2.62-1.18,.57-.79,.85-2.02,.85-3.7,0-1.5-.3-2.66-.9-3.48-.6-.83-1.46-1.24-2.56-1.24s-1.95,.39-2.5,1.17c-.55,.78-.82,1.95-.82,3.51Z" style="fill:#1d1d1b;"></path><path d="M468.78,144.92h7.88c-.57,2.26-1.83,3.97-3.76,5.13-1.94,1.16-4.49,1.74-7.67,1.74-3.55,0-6.38-.99-8.46-2.96-2.09-1.97-3.13-4.63-3.13-7.97s1.07-6.22,3.2-8.24c2.13-2.01,5.03-3.02,8.7-3.02s6.57,1.09,8.66,3.29c2.09,2.19,3.13,5.23,3.13,9.11v.49l-15.44,.02c.04,1.32,.39,2.34,1.05,3.06,.66,.72,1.58,1.08,2.76,1.08,.8,0,1.47-.15,2-.45,.53-.3,.89-.73,1.08-1.29Zm-6.89-6.55h7.33c-.09-1.28-.45-2.24-1.07-2.88-.62-.64-1.52-.96-2.69-.96-1.08,0-1.93,.34-2.56,1.02-.63,.68-.97,1.62-1.02,2.83Z" style="fill:#1d1d1b;"></path><path d="M480.72,151.05v-20.7h7.48v3.03c.91-1.22,1.94-2.12,3.08-2.7s2.46-.88,3.94-.88c1.36,0,2.53,.29,3.51,.86,.98,.57,1.86,1.48,2.64,2.72,1-1.24,2.1-2.16,3.29-2.74s2.54-.88,4.04-.88c2.44,0,4.33,.63,5.68,1.89,1.34,1.26,2.02,3.02,2.02,5.29v14.11h-8.11v-11.08c0-1.29-.22-2.23-.66-2.82-.44-.58-1.15-.88-2.12-.88s-1.74,.3-2.21,.91-.7,1.56-.7,2.86v11.01h-8.07v-10.8c0-1.42-.23-2.44-.68-3.06-.45-.62-1.19-.92-2.22-.92-.91,0-1.61,.31-2.08,.93-.48,.62-.71,1.53-.71,2.72v11.12h-8.11Z" style="fill:#1d1d1b;"></path><path d="M534.69,144.92h7.88c-.57,2.26-1.83,3.97-3.76,5.13-1.94,1.16-4.49,1.74-7.67,1.74-3.55,0-6.38-.99-8.46-2.96-2.09-1.97-3.13-4.63-3.13-7.97s1.07-6.22,3.2-8.24c2.13-2.01,5.03-3.02,8.7-3.02s6.57,1.09,8.66,3.29c2.09,2.19,3.13,5.23,3.13,9.11v.49l-15.44,.02c.04,1.32,.39,2.34,1.05,3.06,.66,.72,1.58,1.08,2.76,1.08,.8,0,1.47-.15,2-.45,.53-.3,.89-.73,1.08-1.29Zm-6.89-6.55h7.33c-.09-1.28-.45-2.24-1.07-2.88-.62-.64-1.52-.96-2.69-.96-1.08,0-1.93,.34-2.56,1.02-.63,.68-.97,1.62-1.02,2.83Z" style="fill:#1d1d1b;"></path><path d="M546.63,151.05v-20.7h7.48v3.03c.96-1.21,2.04-2.1,3.23-2.69,1.19-.59,2.53-.89,4.03-.89,1.26,0,2.38,.21,3.37,.63,.99,.42,1.83,1.04,2.51,1.87,.62,.75,1.06,1.66,1.32,2.73,.26,1.07,.39,2.83,.39,5.26v10.76h-8.23v-10.72c0-1.57-.21-2.66-.63-3.25-.42-.59-1.14-.89-2.17-.89s-1.82,.34-2.32,1.03c-.51,.69-.76,1.73-.76,3.14v10.68h-8.23Z" style="fill:#1d1d1b;"></path><path d="M582.77,143.38c0,.7,.2,1.19,.61,1.48,.41,.29,1.13,.43,2.17,.43,.3,0,.54,0,.7,0,.16,0,.31-.02,.47-.03v5.96c-1.02,.06-1.94,.11-2.77,.14-.83,.03-1.61,.05-2.33,.05-2.62,0-4.44-.44-5.47-1.31-1.03-.88-1.55-2.41-1.55-4.61v-10.38h-2.91v-4.74h2.91v-6.4h8.19v6.4h3.87v4.74h-3.87v8.28Z" style="fill:#1d1d1b;"></path></g><path d="M175.45,72.45h29.8c-.64,9.89-4.59,17.68-11.82,23.37-7.25,5.7-16.88,8.55-28.88,8.55-13.28,0-23.8-3.6-31.52-10.83-7.72-7.23-11.58-17.04-11.58-29.45s3.81-22.2,11.44-29.33c7.65-7.16,18.1-10.73,31.38-10.73,12.05,0,21.75,2.82,29.12,8.45,7.34,5.63,11.2,13.21,11.58,22.71h-29.8c-.33-3.53-1.39-6.14-3.18-7.86-1.79-1.69-4.4-2.54-7.86-2.54-4.31,0-7.49,1.55-9.51,4.66-2.02,3.11-3.04,7.98-3.04,14.64s.99,11.7,2.94,14.83c1.95,3.13,5.06,4.68,9.35,4.68,3.44,0,6.14-.94,8.1-2.83,1.95-1.88,3.11-4.66,3.48-8.33h0Z" style="fill:#1d1d1b; fill-rule:evenodd;"></path><path d="M297.03,101.68h-26.41v-9.18c-3.2,4-6.85,6.97-10.92,8.92-4.07,1.95-8.64,2.94-13.7,2.94-9.6,0-17.37-3.65-23.3-10.92-5.93-7.3-8.9-16.92-8.9-28.93s2.97-21.56,8.92-28.95c5.96-7.41,13.63-11.11,23.02-11.11,4.5,0,8.57,.85,12.24,2.54,3.65,1.72,6.97,4.28,9.96,7.72V.11h29.09V101.68h0Zm-41.1-19.4c3.81,0,6.83-1.53,8.99-4.59,2.19-3.06,3.29-7.3,3.29-12.71,0-5.89-1.01-10.24-3.04-13.09-2.02-2.85-5.11-4.28-9.25-4.28s-7.2,1.41-9.18,4.24c-1.98,2.82-2.97,7.2-2.97,13.13,0,5.46,1.06,9.72,3.2,12.76,2.14,3.04,5.13,4.54,8.94,4.54h0Z" style="fill:#1d1d1b; fill-rule:evenodd;"></path><path d="M313.11,101.68V26.71h27.09v10.97c3.32-4.43,7.04-7.67,11.18-9.79,4.14-2.12,8.9-3.18,14.26-3.18,4.92,0,9.16,1.04,12.73,3.11,3.55,2.07,6.73,5.34,9.56,9.86,3.62-4.52,7.6-7.81,11.91-9.93,4.33-2.12,9.2-3.18,14.62-3.18,8.83,0,15.68,2.28,20.55,6.83,4.87,4.57,7.32,10.95,7.32,19.18v51.1h-29.38V61.52c0-4.68-.8-8.07-2.38-10.19-1.58-2.12-4.14-3.18-7.7-3.18s-6.28,1.11-8,3.32c-1.69,2.19-2.54,5.65-2.54,10.33v39.87h-29.24V62.56c0-5.13-.82-8.83-2.45-11.06-1.62-2.24-4.31-3.34-8.03-3.34-3.32,0-5.84,1.13-7.56,3.39-1.72,2.24-2.59,5.53-2.59,9.86v40.28h-29.38Z" style="fill:#1d1d1b; fill-rule:evenodd;"></path><path d="M457.73,101.68V26.71h27.09v10.97c3.32-4.43,7.04-7.67,11.18-9.79,4.14-2.12,8.9-3.18,14.26-3.18,4.92,0,9.16,1.04,12.73,3.11,3.55,2.07,6.73,5.34,9.56,9.86,3.62-4.52,7.6-7.81,11.91-9.93,4.33-2.12,9.2-3.18,14.62-3.18,8.83,0,15.68,2.28,20.55,6.83,4.87,4.57,7.32,10.95,7.32,19.18v51.1h-29.38V61.52c0-4.68-.8-8.07-2.38-10.19-1.58-2.12-4.14-3.18-7.7-3.18s-6.28,1.11-8,3.32c-1.69,2.19-2.54,5.65-2.54,10.33v39.87h-29.24V62.56c0-5.13-.82-8.83-2.45-11.06-1.62-2.24-4.31-3.34-8.03-3.34-3.32,0-5.84,1.13-7.56,3.39-1.72,2.24-2.59,5.53-2.59,9.86v40.28h-29.38Z" style="fill:#1d1d1b; fill-rule:evenodd;"></path><polygon points="100.54 100.59 100.54 100.6 100.4 100.6 100.4 100.7 .16 100.7 .16 100.59 0 100.59 0 0 100.59 0 100.59 100.59 100.54 100.59 100.54 100.59" style="fill:#312783; fill-rule:evenodd;"></polygon><polygon points="21.46 21.42 98.31 21.42 98.31 98.27 21.46 98.27 21.46 21.42 21.46 21.42" style="fill:#e30613; fill-rule:evenodd;"></polygon></g></g></svg>