<svg xmlns="http://www.w3.org/2000/svg" width="285" height="75" fill="none" viewBox="0 0 285 75">
  <path fill="#1A171B" d="M64.328 31.749l-.414 14.636-5.708-.008 1.138-26.346 5.905.009 6.276 16.782 6.32-16.765 5.905.008 1.065 26.35-5.706-.009-.374-14.637-4.582 11.228-5.275-.006-4.55-11.242zM99.745 38.8v.552c-.003 2.216.862 2.811 3.46 2.813 1.771.003 4.134-.31 5.826-.821l.822 4.273c-1.733.63-4.529 1.22-7.206 1.217-6.22-.01-8.576-3.1-8.57-7.847l.006-4.51c.005-4.153 1.86-7.71 8.239-7.702 6.375.009 7.75 3.809 7.743 8.001l-.006 4.037-10.314-.014zm4.968-5.097c.001-1.346-.39-2.454-2.359-2.456-1.968-.003-2.6 1.104-2.602 2.449l-.001.83 4.961.007.001-.83zM126.108 46.865c-3.661-.004-5.785-1.39-5.781-4.952l.015-10.126-2.597-.004.006-4.589 2.597.005.006-4.63 5.671-.782-.008 5.42 4.369.005-.319 4.588-4.056-.005-.012 9.336c-.002.79.469 1.068 1.178 1.07.63 0 1.535-.077 2.363-.353l.662 4.312c-1.258.432-2.796.708-4.094.706zM149.649 46.503l-.393-1.229c-2.206 1.225-4.174 1.619-5.474 1.617-3.543-.005-4.995-2.579-4.991-5.864.005-3.876 1.779-5.416 5.717-5.41l4.132.006.001-1.465c.003-1.977-.352-2.65-3.382-2.654-1.692-.003-3.384.193-5.195.547l-.742-4.273c1.811-.552 4.683-.944 6.889-.941 6.652.009 8.106 2.029 8.1 7.37l-.018 12.302-4.644-.006zm-1.016-6.925l-2.715-.003c-1.221-.002-1.693.314-1.695 1.383-.002 1.067.431 1.502 1.532 1.503 1.181.003 2.009-.274 2.874-.667l.004-2.215zM165.708 32.571a2.44 2.44 0 012.439 2.438 2.44 2.44 0 01-2.445 2.428A2.422 2.422 0 01163.285 35a2.422 2.422 0 012.423-2.429zM175.39 46.538l.036-26.348 5.906.01-.03 21.084 10.392.015-.008 5.262-16.296-.023zM205.237 38.945v.553c-.003 2.216.863 2.81 3.461 2.814 1.77.002 4.133-.311 5.826-.823l.821 4.273c-1.733.63-4.529 1.221-7.205 1.217-6.221-.008-8.577-3.097-8.571-7.844l.007-4.51c.004-4.154 1.86-7.712 8.237-7.703 6.376.009 7.75 3.81 7.744 8.001l-.006 4.036-10.314-.014zm4.968-5.097c.002-1.346-.391-2.453-2.359-2.455-1.969-.004-2.6 1.103-2.602 2.45l-.001.829 4.96.007.002-.83zM236.088 46.622l-7.243-.01-5.995-19.274 5.746.007L232.475 41l3.915-13.644 5.748.008-6.05 19.258zM255.07 39.012v.555c-.003 2.215.863 2.81 3.461 2.812 1.771.003 4.133-.31 5.826-.821l.822 4.273c-1.734.631-4.53 1.22-7.206 1.216-6.221-.009-8.577-3.098-8.571-7.845l.007-4.51c.004-4.152 1.86-7.71 8.238-7.702 6.376.008 7.75 3.809 7.743 8.002l-.006 4.036-10.314-.016zm4.969-5.096c.002-1.345-.391-2.453-2.359-2.457-1.968-.002-2.6 1.106-2.602 2.45l-.001.831 4.961.007.001-.831zM275.018 46.675l.037-27.136 5.669-.785-.037 27.929-5.669-.008zM62.112 69.121c-1.044 0-2.302-.197-3.233-.573l.23-1.15a10.3 10.3 0 003.037.477c1.746 0 2.105-.46 2.105-1.708 0-1.476-.015-1.608-2.253-2.117-2.63-.59-2.94-1.1-2.94-3.364 0-1.904.784-2.823 3.48-2.823.947 0 2.072.132 2.939.361l-.116 1.198a13.202 13.202 0 00-2.79-.313c-1.78 0-2.108.362-2.108 1.625 0 1.51 0 1.576 2.156 2.119 2.89.721 3.037 1.149 3.037 3.282 0 1.903-.555 2.986-3.544 2.986zM78.51 65.806c0 1.822-1.126 3.315-3.935 3.315-2.81 0-3.936-1.494-3.936-3.315V61.18c0-1.823 1.126-3.316 3.936-3.316s3.934 1.494 3.934 3.316v4.627zm-6.468-.032c0 1.346.818 2.1 2.533 2.1 1.714 0 2.532-.754 2.532-2.1V61.21c0-1.346-.818-2.1-2.532-2.1-1.715 0-2.533.754-2.533 2.1v4.564zM83.817 68.958V58.027h6.467v1.264h-5.062v3.644h4.72v1.264h-4.72v4.759h-1.405zM97.293 59.29h-3.25v-1.263h7.904v1.264h-3.25v9.667h-1.404V59.29zM115.863 67.612l2.482-9.585h1.372l-2.858 10.93h-1.977l-2.253-9.765-2.254 9.766h-1.977l-2.857-10.931h1.372l2.482 9.585 2.254-9.585h1.96l2.254 9.585zM131.949 68.958h-1.421l-.898-2.627h-4.622l-.881 2.627h-1.421l3.675-10.931h1.894l3.674 10.93zm-4.621-9.913l-1.943 6.056h3.886l-1.943-6.056zM140.637 65.002h-2.661v3.956h-1.405V58.027h4.148c2.335 0 3.152 1.018 3.152 2.692v1.576c0 1.295-.474 2.182-1.732 2.544l2.827 4.12h-1.617l-2.712-3.957zm.034-5.711h-2.694v4.464h2.694c1.34 0 1.796-.377 1.796-1.445v-1.576c0-1.082-.456-1.443-1.796-1.443zM149.67 58.027h6.403v1.264h-4.998v3.43h4.639v1.262h-4.639v3.71h5.014v1.265h-6.419V58.027zM175.868 68.958h-1.421l-.899-2.627h-4.622l-.882 2.627h-1.421l3.675-10.931h1.895l3.675 10.93zm-4.622-9.913l-1.944 6.056h3.887l-1.943-6.056zM181.535 65.823c0 1.396.408 2.018 2.27 2.018.572 0 1.29-.05 2.042-.196v-3.709h1.356v4.71c-1.062.314-2.319.477-3.447.477-2.776 0-3.625-1.199-3.625-3.218v-4.808c0-2.216 1.095-3.234 3.805-3.234.931 0 2.009.115 3.021.345l-.163 1.214c-1.044-.18-2.025-.278-2.923-.278-1.796 0-2.335.541-2.335 2.018v4.661h-.001z"/>
  <path fill="#009CDF" fill-rule="evenodd" d="M38.648 69.185V40.09l-33.742.023C20.04 45.31 31.274 54.99 38.648 69.185z" clip-rule="evenodd"/>
  <path fill="#E2007A" fill-rule="evenodd" d="M38.648 5.09v27.749l-33.742-.025C20.04 28.216 31.274 18.986 38.648 5.089z" clip-rule="evenodd"/>
</svg>
